<?xml version="1.0" encoding="utf-8"?>
<!-- Generator: Adobe Illustrator 21.0.0, SVG Export Plug-In . SVG Version: 6.00 Build 0)  -->
<svg version="1.1" id="Layer_1" xmlns="http://www.w3.org/2000/svg" xmlns:xlink="http://www.w3.org/1999/xlink" x="0px" y="0px"
	 viewBox="0 0 877 1091.3" style="enable-background:new 0 0 877 1091.3;" xml:space="preserve">
<style type="text/css">
	.st0{fill:#6C757D;}
	.st1{display:none;enable-background:new    ;}
	.st2{font-family:'Arial-BoldMT';}
	.st3{font-size:5px;}
</style>
<path class="st0" d="M596.2,304.2c11,0,21.1-4.4,28.5-11.5c7.4-7.1,12-17,12-28v-80c0-22.1-18.4-40.5-40.5-40.5
	s-39.5,18.4-39.5,40.5v80C556.7,286.8,574.2,304.2,596.2,304.2z"/>
<path class="st0" d="M280.8,313.4c22.1,0,39.5-18.4,39.5-40.5v-80c0-22-17.4-39.5-39.5-39.5c-22.1,0-40.5,17.5-40.5,39.5v80
	c0,11,4.6,21.1,12,28.5C259.7,308.8,269.8,313.4,280.8,313.4z"/>
<path class="st0" d="M668.1,228.1v36.6c0,39.1-32.2,71-71.9,71c-39.1,0-71-31.8-71-71v-36.6H351.8V273c0,18.9-7.4,36.9-20.8,50.5
	c-13.5,13.8-31.3,21.3-50.2,21.3c-39.6,0-71.9-32.2-71.9-71.9V228H42.8v711.5h791.4V228.1H668.1z M806,911.3H71V417.2h735V911.3z"/>
<text transform="matrix(1 0 0 1 0 888)" class="st1 st2 st3">Created by Claudia Revalina</text>
<text transform="matrix(1 0 0 1 0 893)" class="st1 st2 st3">from the Noun Project</text>
<path class="st0" d="M455.4,752.7h-33.8c-7.9,0-14.4-6.4-14.4-14.4V501c0-7.9,6.4-14.4,14.4-14.4h33.8c7.9,0,14.4,6.4,14.4,14.4
	v237.3C469.8,746.2,463.3,752.7,455.4,752.7z"/>
<path class="st0" d="M455.4,839.4h-33.8c-7.9,0-14.4-6.4-14.4-14.4v-33.8c0-7.9,6.4-14.4,14.4-14.4h33.8c7.9,0,14.4,6.4,14.4,14.4
	V825C469.8,833,463.3,839.4,455.4,839.4z"/>
</svg>
