<?xml version="1.0" encoding="utf-8"?>
<!-- Generator: Adobe Illustrator 21.0.0, SVG Export Plug-In . SVG Version: 6.00 Build 0)  -->
<svg version="1.0" id="Layer_1" xmlns="http://www.w3.org/2000/svg" xmlns:xlink="http://www.w3.org/1999/xlink" x="0px" y="0px"
	 viewBox="0 0 24 24" style="enable-background:new 0 0 24 24;" xml:space="preserve">
<style type="text/css">
	.st0{display:none;}
	.st1{display:inline;fill:none;}
	.st2{fill:#6C757D;}
	.st3{fill:#FFFFFF;}
</style>
<g id="Layer_5" class="st0">
	<path class="st1" d="M14.5,18.6c0.1-0.4,0.3-0.8,0.6-1.1c0.8-0.7,1.5-1.5,2.1-2.5c0.7-1.9,0.3-4.3-0.5-6.2
		c-1.2-3.3-3.5-3.7-6.3-4.2C10,5.8,9.2,6.9,9,8.1c-0.3,1.5-0.5,3-0.9,4.5C8,13,7.8,13.4,7.6,13.7c0,0.2,0,0.3,0,0.5
		c0,0.6-0.1,0.1,0.1,0.6C7.5,14.4,8,15.2,8,15.3c0.3,0.4,0.5,0.8,0.7,1.2c0.5,1,0.5,2.1,0.2,3C10.9,19.6,12.8,19.4,14.5,18.6z"/>
</g>
<g id="Layer_4" class="st0">
	<path class="st1" d="M24,0H0v24h9.5c-2.9-0.2-5.8-0.9-7.9-1.7c-2.1-0.9-1.7-3.9-0.1-4.4C1.4,17.5,1.2,17,1,16.5
		c-0.4-1.3-0.4-2.7-0.4-4c0-0.9,0.4-1.7,0.9-2.3c0.3-1.3,0.5-2.7,0.8-4C2.6,5,3.4,4,3.8,2.7c0.8-2.4,3.4-2.8,5.1-1.9
		c0.5-0.4,1.1-0.7,1.9-0.6c4.7,0.8,7.6,1.9,9.5,5.7c1.1-0.3,2.5,0.2,2.7,1.5c0.5,3.1-0.1,6.2-1.5,8.9c-0.8,2.7-2.1,5.1-4.3,6.4
		c-1.4,0.8-3.1,1.2-5,1.3H24V10.5c-0.4-0.9-0.4-2,0-2.9V0z"/>
</g>
<g id="Layer_3">
	<path class="st2" d="M11.8,9.6c-1.9,0-5.9,1-5.9,2.9v9.9h3.2l0,0h5.3l0,0h3.2v-9.9C17.7,10.6,13.8,9.6,11.8,9.6z"/>
</g>
<circle class="st2" cx="11.8" cy="5.3" r="3.2"/>
<g id="Layer_8">
	<g id="Layer_6">
		<polygon class="st3" points="12.6,10.1 11,10.1 10,17.4 11.8,19.2 13.6,17.4 		"/>
	</g>
</g>
</svg>
