<?xml version="1.0" encoding="utf-8"?>
<!-- Generator: Adobe Illustrator 21.0.0, SVG Export Plug-In . SVG Version: 6.00 Build 0)  -->
<svg version="1.1" baseProfile="tiny" id="Layer_1" xmlns="http://www.w3.org/2000/svg" xmlns:xlink="http://www.w3.org/1999/xlink"
	 x="0px" y="0px" viewBox="0 0 24 24" xml:space="preserve">
<g id="Layer_9" display="none">
	<path fill="none" d="M0,0v24h24V0H0z M21.9,23h-9.3V10.7h9.3V23z"/>
</g>
<g id="Layer_8" display="none">
</g>
<g id="Layer_2" display="none">
	<g id="Layer_5" display="inline">
		<path fill="none" d="M19.8,20.1c-1,0-1.9-0.8-1.9-1.8l0,0c0,1,0.8,1.9,1.9,1.9s1.9-0.9,1.9-1.9l0,0C21.7,19.3,20.8,20.1,19.8,20.1
			z"/>
	</g>
	<g id="Layer_4" display="inline">
	</g>
	<g id="Layer_3" display="inline">
		<path fill="#FFFFFF" d="M19.8,16.3c-1,0-1.9,0.9-1.9,1.9c0,0,0,0,0,0.1c0,1,0.9,1.8,1.9,1.8s1.9-0.8,1.9-1.8c0,0,0,0,0-0.1
			C21.7,17.2,20.8,16.3,19.8,16.3z"/>
	</g>
</g>
<g>
	<path fill="#6C757D" d="M20.2,18.2l-0.8-0.6v-0.2l0.8-0.6c0.2-0.1,0.2-0.3,0.1-0.5l-0.9-1.5c-0.1-0.1-0.2-0.2-0.3-0.2
		c0,0-0.1,0-0.2,0L18,15c-0.1,0-0.1-0.1-0.2-0.1l-0.2-1c0-0.2-0.2-0.4-0.4-0.4h-1.7c-0.2,0-0.4,0.2-0.4,0.3l-0.1,1
		c0,0-0.1,0-0.1,0.1c0,0-0.1,0-0.1,0.1l-0.9-0.4c-0.1,0-0.1,0-0.2,0s-0.3,0.1-0.3,0.2l-0.7,1.4c-0.1,0.2-0.1,0.4,0.1,0.5l0.8,0.6
		v0.2l-0.8,0.7c-0.2,0.1-0.2,0.3-0.1,0.5l0.9,1.5c0.1,0.1,0.2,0.2,0.3,0.2c0,0,0.1,0,0.2,0L15,20c0.1,0,0.1,0.1,0.2,0.1l0.2,1
		c0,0.2,0.2,0.3,0.4,0.3h1.7c0.2,0,0.4-0.1,0.4-0.3l0.1-1h0.1c0,0,0.1,0,0.1-0.1l1,0.4c0,0,0.1,0,0.2,0s0.3-0.1,0.3-0.2l0.8-1.5
		C20.4,18.6,20.3,18.3,20.2,18.2z M18.3,17.5c0,1-0.8,1.9-1.9,1.9s-1.9-0.9-1.9-1.9l0,0c0,0,0,0,0-0.1c0-1,0.9-1.9,1.9-1.9
		C17.4,15.5,18.3,16.4,18.3,17.5C18.3,17.4,18.3,17.4,18.3,17.5L18.3,17.5z"/>
	<path fill="#6C757D" d="M4.3,1.7v19.6h5.4v-3.5h2.1v-1.1H9.7V14h2.1v-1.1H9.7v-2.7h2.7v2.1h1.1v-2.1h2.7v2.1h1.6V4.6L4.3,1.7z
		 M8.6,20.5H5.9v-2.7h2.7V20.5z M8.6,16.7H5.9V14h2.7V16.7z M8.6,12.9H5.9v-2.7h2.7V12.9z M8.6,9.1H5.9V6.4h2.7V9.1z M12.4,9.1H9.7
		V6.4h2.7V9.1z M16.2,9.1h-2.7V6.4h2.7V9.1z"/>
</g>
</svg>
