<?xml version="1.0" encoding="utf-8"?>
<!-- Generator: Adobe Illustrator 21.0.0, SVG Export Plug-In . SVG Version: 6.00 Build 0)  -->
<svg version="1.0" id="Layer_1" xmlns="http://www.w3.org/2000/svg" xmlns:xlink="http://www.w3.org/1999/xlink" x="0px" y="0px"
	 viewBox="0 0 24 24" style="enable-background:new 0 0 24 24;" xml:space="preserve">
<style type="text/css">
	.st0{display:none;fill:none;}
	.st1{display:none;}
	.st2{display:inline;}
	.st3{display:inline;fill:#FFFFFF;}
	.st4{fill:#6C757D;stroke:#6C757D;stroke-width:0.5;stroke-miterlimit:10;}
	.st5{fill:#6C757D;}
</style>
<path class="st0" d="M0,0v24h24V0H0z M21.9,23h-9.3V10.7h9.3V23z"/>
<path class="st1" d="M12.5,18.3H2.9V3.9h13.4v6.7h1.8V3.5c0-1.2-1-2.2-2.2-2.2H3.4c-1.2,0-2.2,1-2.2,2.2v17c0,1.2,1,2.2,2.2,2.2h9.1
	V18.3z M9.7,21.9c-0.7,0-1.3-0.6-1.3-1.3c0-0.7,0.6-1.3,1.3-1.3s1.3,0.6,1.3,1.3S10.4,21.9,9.7,21.9z"/>
<rect x="16.3" y="7.1" class="st1" width="1.8" height="5.2"/>
<path class="st1" d="M18.7,18.2v0.6H4.1V3.2h14.6v5.1h1.9V2.7c0-1.3-1.1-2.4-2.4-2.4H4.6c-1.3,0-2.4,1.1-2.4,2.4v18.5
	c0,1.3,1.1,2.4,2.4,2.4h13.6c1.3,0,2.4-1.1,2.4-2.4v-3H18.7z M11.4,22.7c-0.8,0-1.5-0.7-1.5-1.5s0.7-1.5,1.5-1.5s1.5,0.7,1.5,1.5
	C12.9,22.1,12.2,22.7,11.4,22.7z"/>
<g class="st1">
	<path class="st2" d="M23.4,14l-0.8-0.6v-0.2l0.8-0.6c0.2-0.1,0.2-0.3,0.1-0.5l-0.9-1.5c-0.1-0.1-0.2-0.2-0.3-0.2c0,0-0.1,0-0.2,0
		l-0.9,0.4c-0.1,0-0.1-0.1-0.2-0.1l-0.2-1c0-0.2-0.2-0.4-0.4-0.4h-1.7c-0.2,0-0.4,0.2-0.4,0.3l-0.1,1c0,0-0.1,0-0.1,0.1
		c0,0-0.1,0-0.1,0.1l-0.9-0.4c-0.1,0-0.1,0-0.2,0s-0.3,0.1-0.3,0.2L15.9,12c-0.1,0.2-0.1,0.4,0.1,0.5l0.8,0.6v0.2L16,14
		c-0.2,0.1-0.2,0.3-0.1,0.5l0.9,1.5c0.1,0.1,0.2,0.2,0.3,0.2c0,0,0.1,0,0.2,0l0.9-0.4c0.1,0,0.1,0.1,0.2,0.1l0.2,1
		c0,0.2,0.2,0.3,0.4,0.3h1.7c0.2,0,0.4-0.1,0.4-0.3l0.1-1h0.1c0,0,0.1,0,0.1-0.1l1,0.4c0,0,0.1,0,0.2,0s0.3-0.1,0.3-0.2l0.8-1.5
		C23.6,14.4,23.5,14.1,23.4,14z M19.6,15.2c-1.1,0-1.9-0.9-1.9-1.9s0.9-1.9,1.9-1.9s1.9,0.9,1.9,1.9S20.7,15.2,19.6,15.2z"/>
	<circle class="st3" cx="19.6" cy="13.2" r="1.9"/>
</g>
<g id="Layer_2">
	<g id="Layer_3">
	</g>
</g>
<g id="Layer_4">
</g>
<g>
	<path class="st4" d="M14.8,11.3L11.4,12v-0.6c0-0.2-0.2-0.4-0.4-0.4H8.5C8.2,11,8,11.2,8,11.4V12l-6.4-1.4c-0.2,0-0.2-0.1-0.2-0.3
		V7.7c0-0.2,0.1-0.3,0.3-0.3h13.1v-1h-1.7V6.1c0-0.7-0.5-1.2-1.3-1.2H7.6c-0.7,0-1.3,0.5-1.3,1.2v0.3H1.7C1,6.4,0.4,7,0.4,7.7v2.6
		c0,0.6,0.4,1.1,1,1.3L8,13.1V14c0,0.2,0.2,0.4,0.4,0.4H11c0.2,0,0.4-0.2,0.4-0.4v-0.9l3.4-0.7C14.8,12.4,14.8,11.3,14.8,11.3z"/>
	<path class="st4" d="M18.1,12.7c-0.3,0-0.5,0.2-0.5,0.5v5.3c0,0.2-0.1,0.3-0.3,0.3H2.2c-0.2,0-0.3-0.1-0.3-0.3v-5.3
		c0-0.3-0.2-0.5-0.5-0.5s-0.5,0.2-0.5,0.5v5.3c0,0.8,0.6,1.3,1.4,1.3h15.1c0.8,0,1.4-0.6,1.4-1.3v-5.3
		C18.7,12.9,18.5,12.7,18.1,12.7z"/>
	<g>
		<path class="st5" d="M23.7,9l-0.8-0.6V8.1l0.8-0.6c0.2-0.1,0.2-0.3,0.1-0.5l-0.9-1.5c-0.1-0.1-0.2-0.2-0.3-0.2c0,0-0.1,0-0.2,0
			l-0.9,0.4c-0.1,0-0.1-0.1-0.2-0.1l-0.2-1c0-0.2-0.2-0.4-0.4-0.4h-1.8c-0.2,0-0.4,0.2-0.4,0.3l-0.1,1c0,0-0.1,0-0.1,0.1
			c0,0-0.1,0-0.1,0.1l-0.9-0.4c-0.1,0-0.1,0-0.2,0s-0.3,0.1-0.3,0.2l-0.7,1.4C16,7.1,16,7.3,16.2,7.4L16.8,8v0.2L15.9,9
			c-0.2,0.1-0.2,0.3-0.1,0.5l0.9,1.5c0.1,0.1,0.2,0.2,0.3,0.2c0,0,0.1,0,0.2,0l0.9-0.4c0.1,0,0.1,0.1,0.2,0.1l0.2,1
			c0,0.2,0.2,0.3,0.4,0.3h1.8c0.2,0,0.4-0.1,0.4-0.3l0.1-1h0.1c0,0,0.1,0,0.1-0.1l1,0.4c0,0,0.1,0,0.2,0s0.3-0.1,0.3-0.2L24,9.5
			C23.9,9.4,23.8,9.1,23.7,9z M19.7,10.2c-1.2,0-2-0.9-2-1.9s0.9-1.9,2-1.9c1,0,2,0.9,2,1.9S20.9,10.2,19.7,10.2z"/>
		<ellipse class="st0" cx="19.7" cy="8.1" rx="2" ry="1.9"/>
	</g>
</g>
</svg>
