<?xml version="1.0" encoding="utf-8"?>
<!-- Generator: Adobe Illustrator 21.0.0, SVG Export Plug-In . SVG Version: 6.00 Build 0)  -->
<svg version="1.0" id="Layer_1" xmlns="http://www.w3.org/2000/svg" xmlns:xlink="http://www.w3.org/1999/xlink" x="0px" y="0px"
	 viewBox="0 0 24 24" style="enable-background:new 0 0 24 24;" xml:space="preserve">
<style type="text/css">
	.st0{fill:none;}
	.st1{display:none;}
	.st2{fill:#6C757D;}
	.st3{fill:none;stroke:#6C757D;stroke-width:1.5;stroke-miterlimit:10;}
	.st4{fill:none;stroke:#6C757D;stroke-miterlimit:10;}
</style>
<path class="st0" d="M0-0.3h24v24H0V-0.3z"/>
<path class="st1" d="M12,12c2.2,0,4-1.8,4-4s-1.8-4-4-4S8,5.8,8,8S9.8,12,12,12z M12,14c-2.7,0-8,1.3-8,4v2h16v-2
	C20,15.3,14.7,14,12,14z"/>
<path class="st2" d="M1.2,21.3V18c0-2.9,6-4.4,9.2-4.4s9.2,1.5,9.2,4.4v3.3H1.2z M10.3,15.3c-3.2,0-7.1,1.5-7.4,2.6v1.6h14.8V18
	C17.4,16.9,13.6,15.3,10.3,15.3z"/>
<circle class="st3" cx="10.6" cy="7" r="4.3"/>
<path class="st1" d="M11.2,14.5l-0.4-0.9h2l-0.4,0.9H11.2z M13.1,20l-0.7-5.3h-1.2L10.5,20l1.3,1.3L13.1,20z"/>
<g id="Layer_2">
	<g id="Layer_3">
		<path class="st2" d="M21.1,6.6C21,6.6,21,6.7,21,6.7v0.8h-4.3c-0.1,0-0.1,0.1-0.1,0.1v3.8c0,0.1,0.1,0.2,0.2,0.1l1-1v-0.1V8.7H21
			v0.8c0,0.1,0.1,0.2,0.2,0.1l1.6-1.5c0,0,0-0.1,0-0.2L21.1,6.6C21.2,6.6,21.2,6.6,21.1,6.6L21.1,6.6z M22.3,9.2
			C22.2,9.2,22.2,9.2,22.3,9.2l-1.1,1.1v0.1V12H18v-0.8c0-0.1-0.1-0.2-0.2-0.1l-1.6,1.5c0,0,0,0.1,0,0.2l1.6,1.4
			c0.1,0.1,0.2,0,0.2-0.1v-0.8h4.3c0.1,0,0.1-0.1,0.1-0.1V9.3C22.4,9.2,22.3,9.2,22.3,9.2L22.3,9.2z"/>
	</g>
</g>
<circle class="st4" cx="10.5" cy="7" r="3.8"/>
</svg>
