<?xml version="1.0" encoding="utf-8"?>
<!-- Generator: Adobe Illustrator 21.0.0, SVG Export Plug-In . SVG Version: 6.00 Build 0)  -->
<svg version="1.0" id="Layer_1" xmlns="http://www.w3.org/2000/svg" xmlns:xlink="http://www.w3.org/1999/xlink" x="0px" y="0px"
	 viewBox="0 0 24 24" style="enable-background:new 0 0 24 24;" xml:space="preserve">
<style type="text/css">
	.st0{fill:none;}
	.st1{display:none;}
	.st2{display:inline;}
	.st3{display:inline;fill:#FFFFFF;}
	.st4{fill:#6C757D;}
	.st5{display:none;fill:#6C757D;}
	.st6{display:none;fill:#9B3FFF;}
	.st7{fill:none;stroke:#6C757D;stroke-width:1.3;stroke-miterlimit:10;}
	.st8{display:none;fill:none;stroke:#6C757D;stroke-width:0.75;stroke-miterlimit:10;}
	.st9{fill:#6C757D;stroke:#6C757D;stroke-width:0.2;stroke-miterlimit:10;}
</style>
<g id="Layer_31">
	<g id="Layer_22">
		<g>
			<path class="st0" d="M-7.4-4.9v32.8h32.8V-4.9H-7.4z M23.3,21.4h-7.4v-8h7.4V21.4z"/>
			<path class="st0" d="M-7.4-4.9v32.8h32.8V-4.9H-7.4z M23.3,21.4h-7.4v-8h7.4V21.4z"/>
		</g>
	</g>
</g>
<g id="Layer_2">
	<g id="Layer_3">
		<g id="Layer_21">
			<g id="Layer_5_1_">
				<g id="Layer_9_1_">
					<g id="Layer_10">
						<g class="st1">
							<polygon class="st2" points="-2.9,13.2 -3,11.1 -5.1,11.2 -5.1,9.9 -3,9.8 -3.1,7.7 -1.8,7.7 -1.7,9.8 0.4,9.7 0.4,11 
								-1.7,11.1 -1.6,13.2 							"/>
							<path class="st2" d="M-2.7,8.1h0.5l0.1,1.3v0.8h0.7L0,10.1v0.5l-1.3,0.1h-0.8v0.7l0.1,1.4h-0.5l-0.1-1.3v-0.8h-0.8l-1.4,0.1
								v-0.4l1.4-0.1h0.8V9.5L-2.7,8.1 M-3.5,7.3l0.1,2.1l-2.1,0.1l0.1,2.1l2.1-0.1l0.1,2.1l2.1-0.1l-0.1-2.1l2.1-0.1L0.8,9.2
								l-2.1,0.1l-0.1-2.1L-3.5,7.3L-3.5,7.3z"/>
						</g>
						<g class="st1">
							<path class="st2" d="M-3.8,10.9c0,1.1,0.9,2,2.1,1.9s2-1,1.9-2.1c0,1.1-0.9,1.9-1.9,2C-2.8,12.8-3.8,12-3.8,10.9L-3.8,10.9z"
								/>
						</g>
						<g class="st1">
							<path class="st3" d="M-3.4,10.9v-0.1c0-0.8,0.7-1.6,1.5-1.7s1.6,0.7,1.7,1.5v0.1c0,0.7-0.7,1.5-1.5,1.6
								C-2.6,12.4-3.4,11.8-3.4,10.9z"/>
							<path class="st2" d="M-1.9,9.6c0.6,0,1.3,0.5,1.2,1.1v0.1c0,0.5-0.5,1.1-1.1,1.1s-1.2-0.4-1.2-1v-0.1
								C-3,10.3-2.5,9.6-1.9,9.6 M-1.9,8.7c-1.1,0-2,1-1.9,2.1c0,0.1,0,0.1,0,0.1c0,1.1,1,1.9,2.1,1.8c1.1,0,2-0.9,1.9-2
								c0-0.1,0-0.1,0-0.1C0.2,9.6-0.8,8.7-1.9,8.7L-1.9,8.7z"/>
						</g>
					</g>
				</g>
				<g id="Layer_8">
					<g id="Layer_9">
						<g class="st1">
							<path class="st2" d="M5.8,7.2c-0.1-2,1.5-3.8,3.5-3.9c2-0.1,3.8,1.5,3.9,3.5s-1.5,3.8-3.5,3.9C7.7,10.9,5.9,9.2,5.8,7.2z
								 M6.9,7.2C7,8.7,8.2,9.8,9.7,9.7c1.5-0.1,2.6-1.3,2.5-2.8c-0.1-1.5-1.3-2.6-2.8-2.5S6.8,5.7,6.9,7.2z"/>
							<path class="st2" d="M6.3,7.2c0.1,1.8,1.5,3.1,3.3,3s3.1-1.5,3-3.3c0.1,1.8-1.2,3.2-3,3.3S6.4,9,6.3,7.2 M9.3,2.8
								C7,2.9,5.2,4.9,5.3,7.2s2.1,4.2,4.4,4.1s4.2-2.1,4.1-4.4C13.6,4.5,11.7,2.7,9.3,2.8L9.3,2.8z M9.6,9.2
								c-1.2,0.1-2.2-0.9-2.2-2C7.3,6,8.2,5,9.4,4.9s2.2,0.9,2.2,2S10.8,9.1,9.6,9.2L9.6,9.2z"/>
						</g>
					</g>
				</g>
				<g id="Layer_7_1_">
					<path class="st4" d="M5.2,7.2C5.1,5.6,6,4.2,7.4,3.6c-0.7,1.1-1,2.3-0.9,3.5s0.4,2.3,1.1,3.4C6.2,10,5.2,8.7,5.2,7.2z"/>
				</g>
			</g>
		</g>
	</g>
</g>
<path class="st4" d="M1.5,19.6v-2.8c0-0.8,0.6-1.6,1.9-2.3C3,15.3,2.8,16,2.8,16.9v2.8L1.5,19.6L1.5,19.6z"/>
<path class="st5" d="M2.2,15.5c-0.1,0.4-0.2,0.8-0.1,1.3v2.4H1.6v-2.4C1.6,16.3,1.8,15.9,2.2,15.5 M4.5,13.4c-2,0.7-3.7,1.9-3.7,3.4
	V20h2.1v-3.2C2.9,15.4,3.5,14.2,4.5,13.4L4.5,13.4z"/>
<path class="st5" d="M6,4.9C5.6,5.6,5.5,6.3,5.5,7.2c0,0.7,0.2,1.5,0.4,2.2C5.3,8.9,5,8,5,7.2C5,6.2,5.3,5.4,6,4.9 M7.9,3.1
	c-2.1,0.2-3.7,2-3.7,4.1s1.6,3.8,3.7,4.1c-1-1.1-1.6-2.5-1.6-4.1S6.9,4.2,7.9,3.1L7.9,3.1z"/>
<g id="Layer_29">
	<g id="Layer_20">
		<g id="Layer_2_1_">
		</g>
	</g>
</g>
<g id="Layer_28">
	<g id="Layer_19">
		<g id="Layer_4_1_" class="st1">
			<g id="Layer_3_1_" class="st2">
			</g>
		</g>
	</g>
</g>
<g id="Layer_27">
	<g id="Layer_18">
		<g id="Layer_11">
			<g id="Layer_12">
				<path class="st6" d="M8,13.5c2.5,0,7.5,1.2,7.5,3.5v2.5h-15V17C0.5,14.7,5.5,13.5,8,13.5 M1.5,18.5H2h12h0.5V18v-1v-0.1v-0.1
					c-0.3-1.1-3.8-2.4-6.5-2.4s-6.2,1.3-6.5,2.4v0.1V17v1V18.5 M8,13c-2.7,0-8,1.3-8,4v3h16v-3C16,14.3,10.7,13,8,13L8,13z M2,18v-1
					c0.2-0.7,3.3-2,6-2s5.8,1.3,6,2v1H2L2,18z"/>
			</g>
		</g>
	</g>
</g>
<path class="st4" d="M15.9,18.2H5v-1.4c0.3-1.1,3.8-2.3,6.7-2.3c1.4,0,2.9,0.3,4.2,0.8v-1.8c-1.5-0.5-3.1-0.7-4.3-0.7
	c-3,0-8.3,1.4-8.3,4v3h12.6V18.2z"/>
<g id="Layer_25">
	<g id="Layer_16">
		<g class="st1">
			<g class="st2">
				<rect x="1.3" y="14.4" width="13.3" height="4.3"/>
			</g>
		</g>
	</g>
</g>
<g id="Layer_24">
	<g id="Layer_15">
		<g class="st1">
			<path class="st2" d="M0.3,13.2v6.5h15.5v-6.5C15.8,13.2,0.3,13.2,0.3,13.2z M14.6,18.6H1.3v-4.3h13.3V18.6z"/>
		</g>
	</g>
</g>
<g id="Layer_23">
	<g id="Layer_32">
	</g>
</g>
<g id="Layer_14">
	<circle class="st7" cx="11.5" cy="7" r="3.8"/>
</g>
<path class="st8" d="M8.1,10.9L8.1,10.9c-1.8,0-3.3-1.5-3.3-3.3l0,0c0-1.8,1.5-3.3,3.3-3.3l0,0c1.8,0,3.3,1.5,3.3,3.3l0,0
	C11.4,9.5,9.9,10.9,8.1,10.9z"/>
<g>
	<path class="st9" d="M21.7,15.4l-0.6,0.5l0.6,0.6h-3v0.7h3l-0.6,0.7l0.5,0.6l1.5-1.5L21.7,15.4z M17.3,14.2h2.5v-0.7h-2.5
		c-0.4,0-0.7,0.4-0.7,0.7v5c0,0.4,0.4,0.7,0.7,0.7h2.5v-0.7h-2.5C17.3,19.3,17.3,14.2,17.3,14.2z"/>
</g>
<path class="st4" d="M20,10.7l-0.4-0.3v-0.1L20,10c0.1-0.1,0.1-0.2,0.1-0.3l-0.5-0.8c-0.1-0.1-0.1-0.1-0.2-0.1c0,0-0.1,0-0.1,0
	L18.8,9c-0.1,0-0.1-0.1-0.1-0.1l-0.1-0.5c0-0.1-0.1-0.2-0.2-0.2h-0.9c-0.1,0-0.2,0.1-0.2,0.2l-0.1,0.5c0,0-0.1,0-0.1,0.1
	c0,0-0.1,0-0.1,0.1l-0.5-0.2c-0.1,0-0.1,0-0.1,0s-0.2,0.1-0.2,0.1l-0.4,0.8c-0.1,0.1-0.1,0.2,0.1,0.3l0.4,0.3v0.1L16,10.7
	c-0.1,0.1-0.1,0.2-0.1,0.3l0.5,0.8c0.1,0.1,0.1,0.1,0.2,0.1c0,0,0.1,0,0.1,0l0.5-0.2c0.1,0,0.1,0.1,0.1,0.1l0.1,0.5
	c0,0.1,0.1,0.2,0.2,0.2h0.9c0.1,0,0.2-0.1,0.2-0.2l0.1-0.5h0.1c0,0,0.1,0,0.1-0.1l0.5,0.2c0,0,0.1,0,0.1,0s0.2-0.1,0.2-0.1l0.4-0.8
	C20.1,10.9,20,10.8,20,10.7z M19,10.3c0,0.5-0.4,1-1,1c-0.6,0-1-0.5-1-1l0,0c0,0,0,0,0-0.1c0-0.5,0.5-1,1-1C18.5,9.2,19,9.7,19,10.3
	C19,10.3,19,10.3,19,10.3L19,10.3z"/>
</svg>
