<?xml version="1.0" encoding="utf-8"?>
<!-- Generator: Adobe Illustrator 21.0.0, SVG Export Plug-In . SVG Version: 6.00 Build 0)  -->
<svg version="1.1" id="Layer_1" xmlns="http://www.w3.org/2000/svg" xmlns:xlink="http://www.w3.org/1999/xlink" x="0px" y="0px"
	 viewBox="0 0 24 24" style="enable-background:new 0 0 24 24;" xml:space="preserve">
<style type="text/css">
	.st0{fill:none;stroke:#6C757D;stroke-width:1.1;stroke-miterlimit:10;}
	.st1{display:none;fill:#FFFFFF;}
	.st2{fill:#FFFFFF;}
	.st3{fill:#6C7594;}
</style>
<path class="st0" d="M19.5,23H4c-0.6,0-1-0.4-1-1V2.5c0-0.6,0.4-1,1-1h15.5c0.6,0,1,0.4,1,1V22C20.5,22.6,20.1,23,19.5,23z"/>
<g id="Layer_4">
	<polygon class="st1" points="7,1 4,1 4,1 	"/>
</g>
<g id="Layer_2">
	<circle class="st2" cx="11.5" cy="23" r="0.3"/>
</g>
<path class="st3" d="M6,0.9H4.4c0,0-0.1,0-0.1-0.1v0c0,0,0-0.1,0.1-0.1H6c0,0,0.1,0,0.1,0.1L6,0.9C6.1,0.9,6,0.9,6,0.9z"/>
</svg>
