<?xml version="1.0" encoding="utf-8"?>
<!-- Generator: Adobe Illustrator 21.0.0, SVG Export Plug-In . SVG Version: 6.00 Build 0)  -->
<svg version="1.0" id="Layer_1" xmlns="http://www.w3.org/2000/svg" xmlns:xlink="http://www.w3.org/1999/xlink" x="0px" y="0px"
	 viewBox="0 0 24 24" style="enable-background:new 0 0 24 24;" xml:space="preserve">
<style type="text/css">
	.st0{display:none;fill:none;}
	.st1{display:none;}
	.st2{fill:#6C757D;}
</style>
<path class="st0" d="M0,0v24h24V0H0z M21.9,23h-9.3V10.7h9.3V23z"/>
<path class="st1" d="M12.5,18.3H2.9V3.9h13.4v6.7h1.8V3.5c0-1.2-1-2.2-2.2-2.2H3.4c-1.2,0-2.2,1-2.2,2.2v17c0,1.2,1,2.2,2.2,2.2h9.1
	V18.3z M9.7,21.9c-0.7,0-1.3-0.6-1.3-1.3c0-0.7,0.6-1.3,1.3-1.3s1.3,0.6,1.3,1.3S10.4,21.9,9.7,21.9z"/>
<rect x="16.3" y="7.1" class="st1" width="1.8" height="5.2"/>
<path class="st2" d="M18.7,18.2v0.6H4.1V3.2h14.6v5.1h1.9V2.7c0-1.3-1.1-2.4-2.4-2.4H4.6c-1.3,0-2.4,1.1-2.4,2.4v18.5
	c0,1.3,1.1,2.4,2.4,2.4h13.6c1.3,0,2.4-1.1,2.4-2.4v-3H18.7z M11.4,22.7c-0.8,0-1.5-0.7-1.5-1.5s0.7-1.5,1.5-1.5s1.5,0.7,1.5,1.5
	C12.9,22.1,12.2,22.7,11.4,22.7z"/>
<g>
	<path class="st2" d="M23.4,14l-0.8-0.6v-0.2l0.8-0.6c0.2-0.1,0.2-0.3,0.1-0.5l-0.9-1.5c-0.1-0.1-0.2-0.2-0.3-0.2c0,0-0.1,0-0.2,0
		l-0.9,0.4c-0.1,0-0.1-0.1-0.2-0.1l-0.2-1c0-0.2-0.2-0.4-0.4-0.4h-1.7c-0.2,0-0.4,0.2-0.4,0.3l-0.1,1c0,0-0.1,0-0.1,0.1
		c0,0-0.1,0-0.1,0.1l-0.9-0.4c-0.1,0-0.1,0-0.2,0s-0.3,0.1-0.3,0.2L15.9,12c-0.1,0.2-0.1,0.4,0.1,0.5l0.8,0.6v0.2L16,14
		c-0.2,0.1-0.2,0.3-0.1,0.5l0.9,1.5c0.1,0.1,0.2,0.2,0.3,0.2c0,0,0.1,0,0.2,0l0.9-0.4c0.1,0,0.1,0.1,0.2,0.1l0.2,1
		c0,0.2,0.2,0.3,0.4,0.3h1.7c0.2,0,0.4-0.1,0.4-0.3l0.1-1h0.1c0,0,0.1,0,0.1-0.1l1,0.4c0,0,0.1,0,0.2,0s0.3-0.1,0.3-0.2l0.8-1.5
		C23.6,14.4,23.5,14.1,23.4,14z M19.6,15.2c-1.1,0-1.9-0.9-1.9-1.9s0.9-1.9,1.9-1.9s1.9,0.9,1.9,1.9S20.7,15.2,19.6,15.2z"/>
	<circle class="st0" cx="19.6" cy="13.2" r="1.9"/>
</g>
</svg>
