<?xml version="1.0" encoding="utf-8"?>
<!-- Generator: Adobe Illustrator 21.0.0, SVG Export Plug-In . SVG Version: 6.00 Build 0)  -->
<svg version="1.0" id="Layer_1" xmlns="http://www.w3.org/2000/svg" xmlns:xlink="http://www.w3.org/1999/xlink" x="0px" y="0px"
	 viewBox="0 0 24 24" style="enable-background:new 0 0 24 24;" xml:space="preserve">
<style type="text/css">
	.st0{fill:none;}
	.st1{display:none;}
	.st2{display:inline;}
	.st3{fill:#6C757D;}
	.st4{fill:#6C757D;stroke:#6C757D;stroke-width:0.1;stroke-miterlimit:10;}
	.st5{display:none;fill:none;}
</style>
<g>
	<path class="st0" d="M0.1,0v24h24V0H0.1z M19.9,18.8h-7.2v-0.9H12v-3.3h0.7v-3.6h7.2V18.8z"/>
</g>
<g class="st1">
	<g class="st2">
		<path class="st1" d="M20.1,8.2v1.4c-1.6-1.4-3.7-2.2-5.9-2.2s-4.4,0.9-6,2.3V8.2h-1v2.5v1.1h1h2.4v-1.1h-2
			c1.5-1.3,3.4-2.1,5.5-2.1s4,0.8,5.5,2.1h-2v1.1H20h1v-1.1V8.2H20.1z"/>
		<g>
			<path class="st3" d="M18.9,16.7l-2.7-1.2c-0.1,0-0.2-0.1-0.3-0.1h-0.5v-3.1c0-0.9-0.7-1.8-1.6-1.9c-1-0.1-1.9,0.7-1.9,1.8V18
				l-1.3-0.3c-0.1,0-0.7-0.1-1.2,0.4l-1,1l3.6,3.7c0.3,0.3,0.6,0.4,1,0.4h4.6c0.7,0,1.3-0.5,1.4-1.2l0.6-3.9
				C19.8,17.6,19.5,16.9,18.9,16.7z M18.3,17.9l-0.6,3.9h-4.6l-2.6-2.7l2.9,0.6v-7.6c0-0.2,0.2-0.4,0.3-0.4c0.2,0,0.3,0.2,0.3,0.4
				v4.4h1.2L18.3,17.9z"/>
		</g>
	</g>
</g>
<g>
	<path class="st4" d="M19.9,14.5l-0.7,0.7l0.8,0.8h-4.3v1h4.3L19.2,18l0.7,0.7l2.1-2.1L19.9,14.5z M13.7,12.9h3.6v-1h-3.6
		c-0.6,0-1,0.5-1,1v7.4c0,0.6,0.5,1,1,1h3.6v-1h-3.6V12.9z"/>
</g>
<g>
	<rect x="-1.5" y="-1.2" class="st5" width="21.1" height="21.1"/>
	<g>
		<g>
			<path class="st3" d="M15.2,1.5H2.9C2,1.5,1.3,2.3,1.3,3.2v12.3c0,0.9,0.7,1.7,1.7,1.7H12v-1.5H2.8V3.1h12.5v8h1.5V3.2
				C16.9,2.3,16.1,1.5,15.2,1.5z"/>
		</g>
	</g>
	<g>
		<path class="st3" d="M4.8,12.1v1.5h6v-1.5H4.8z M4.8,8.6v1.5h8.6V8.6H4.8z M4.8,5v1.5h8.6V5H4.8z"/>
	</g>
</g>
<path class="st3" d="M22,10.4l-0.4-0.3V10L22,9.7c0.1-0.1,0.1-0.2,0.1-0.3l-0.5-0.8c-0.1-0.1-0.1-0.1-0.2-0.1h-0.1l-0.5,0.2
	c-0.1,0-0.1-0.1-0.1-0.1l-0.1-0.5c0-0.1-0.1-0.2-0.2-0.2h-0.9c-0.1,0-0.2,0.1-0.2,0.2l-0.1,0.5c0,0-0.1,0-0.1,0.1c0,0-0.1,0-0.1,0.1
	l-0.5-0.2c-0.1,0-0.1,0-0.1,0l-0.2,0.1l-0.4,0.8c-0.1,0.1-0.1,0.2,0.1,0.3l0.4,0.3v0.1L18,10.4c-0.1,0.1-0.1,0.2-0.1,0.3l0.5,0.8
	c0.1,0.1,0.1,0.1,0.2,0.1h0.1l0.5-0.2c0.1,0,0.1,0.1,0.1,0.1l0.1,0.5c0,0.1,0.1,0.2,0.2,0.2h0.9c0.1,0,0.2-0.1,0.2-0.2l0.1-0.5h0.1
	c0,0,0.1,0,0.1-0.1l0.5,0.2h0.1l0.2-0.1l0.4-0.8C22.1,10.6,22,10.5,22,10.4z M21,10c0,0.5-0.4,1-1,1s-1-0.5-1-1l0,0c0,0,0,0,0-0.1
	c0-0.5,0.5-1,1-1S21,9.4,21,10L21,10L21,10z"/>
</svg>
