<?xml version="1.0" encoding="utf-8"?>
<!-- Generator: Adobe Illustrator 21.0.0, SVG Export Plug-In . SVG Version: 6.00 Build 0)  -->
<svg version="1.1" id="Layer_1" xmlns="http://www.w3.org/2000/svg" xmlns:xlink="http://www.w3.org/1999/xlink" x="0px" y="0px"
	 viewBox="0 0 877 1091.3" style="enable-background:new 0 0 877 1091.3;" xml:space="preserve">
<style type="text/css">
	.st0{fill:#6C757D;}
	.st1{display:none;enable-background:new    ;}
	.st2{font-family:'Arial-BoldMT';}
	.st3{font-size:5px;}
	.st4{display:none;}
	.st5{fill:none;stroke:#6C757D;stroke-width:15;stroke-miterlimit:10;}
</style>
<path class="st0" d="M270.1,294.5c23.6,0,42.2-19.7,42.2-43.3v-85.4c0-23.5-18.6-42.2-42.2-42.2s-43.3,18.7-43.3,42.2v85.4
	c0,11.7,4.9,22.5,12.8,30.4C247.5,289.6,258.3,294.5,270.1,294.5z"/>
<path class="st0" d="M683.7,203.4v39.1c0,41.8-34.4,75.8-76.8,75.8c-41.8,0-75.8-34-75.8-75.8v-39.1H345.9v48
	c0,20.2-7.9,39.4-22.2,53.9C309.3,320,290.3,328,270.1,328c-42.3,0-76.8-34.4-76.8-76.8v-48H15.9v759.9h845.3V203.4H683.7z
	 M831,933.1H46V405.4h785V933.1z"/>
<text transform="matrix(1 0 0 1 0 888)" class="st1 st2 st3">Created by Claudia Revalina</text>
<text transform="matrix(1 0 0 1 0 893)" class="st1 st2 st3">from the Noun Project</text>
<g>
	<path class="st4" d="M24.1,1058.7h828.8c29.8,0,53.1-23.4,53.1-53.1V261.7c0-29.8-23.4-53.1-53.1-53.1H693.5v-42.5
		c0-23.4-19.1-42.5-42.5-42.5s-42.5,19.1-42.5,42.5v42.5h-340v-42.5c0-23.4-19.1-42.5-42.5-42.5s-42.5,19.1-42.5,42.5v42.5H24.1
		C-5.7,208.6-29,232-29,261.7v743.8C-29,1035.3-5.7,1058.7,24.1,1058.7z M56,293.6h127.5v31.9c0,23.4,19.1,42.5,42.5,42.5
		s42.5-19.1,42.5-42.5v-31.9h340v31.9c0,23.4,19.1,42.5,42.5,42.5s42.5-19.1,42.5-42.5v-31.9H821v680.1H56V293.6z"/>
</g>
<path class="st5" d="M534.1,442.4H342.9c-6.4,0-10.6,4.3-10.6,10.6v180.6c0,6.4,4.3,10.6,10.6,10.6h191.3c6.4,0,10.6-4.3,10.6-10.6
	V453C544.8,446.6,540.5,442.4,534.1,442.4z"/>
<path class="st5" d="M767.9,442.4H587.3c-6.4,0-10.6,4.3-10.6,10.6v180.6c0,6.4,4.3,10.6,10.6,10.6h180.6c6.4,0,10.6-4.3,10.6-10.6
	V453C778.5,446.6,774.3,442.4,767.9,442.4z"/>
<path class="st5" d="M289.7,686.8H109.1c-6.4,0-10.6,4.3-10.6,10.6V878c0,6.4,4.3,10.6,10.6,10.6h180.6c6.4,0,10.6-4.3,10.6-10.6
	V697.4C300.4,691,296.1,686.8,289.7,686.8z"/>
<path class="st5" d="M534.1,686.8H342.9c-6.4,0-10.6,4.3-10.6,10.6V878c0,6.4,4.3,10.6,10.6,10.6h191.3c6.4,0,10.6-4.3,10.6-10.6
	V697.4C544.8,691,540.5,686.8,534.1,686.8z"/>
<path class="st5" d="M767.9,686.8H587.3c-6.4,0-10.6,4.3-10.6,10.6V878c0,6.4,4.3,10.6,10.6,10.6h180.6c6.4,0,10.6-4.3,10.6-10.6
	V697.4C778.5,691,774.3,686.8,767.9,686.8z"/>
<path class="st0" d="M296.6,434.7H102.2c-6.9,0-11.4,4.6-11.4,11.4v194.4c0,6.9,4.6,11.4,11.4,11.4h194.4c6.9,0,11.4-4.6,11.4-11.4
	V446.1C308.1,439.2,303.5,434.7,296.6,434.7z M205.1,617.7c-6.9,0-11.4-4.6-11.4-11.4c0-6.9,4.6-11.4,11.4-11.4
	c6.8,0,11.4,4.6,11.4,11.4C216.6,613.2,212,617.7,205.1,617.7z M216.6,560.5c0,6.9-4.6,11.4-11.4,11.4c-6.8,0-11.4-4.6-11.4-11.4
	v-68.7c0-6.9,4.6-11.4,11.4-11.4c6.8,0,11.4,4.6,11.4,11.4V560.5z"/>
<path class="st0" d="M607.1,294.5c23.6,0,42.2-19.7,42.2-43.3v-85.4c0-23.5-18.6-42.2-42.2-42.2c-23.6,0-43.3,18.7-43.3,42.2v85.4
	c0,11.7,4.9,22.5,12.8,30.4C584.5,289.6,595.3,294.5,607.1,294.5z"/>
</svg>
