<?xml version="1.0" encoding="utf-8"?>
<!-- Generator: Adobe Illustrator 21.0.0, SVG Export Plug-In . SVG Version: 6.00 Build 0)  -->
<svg version="1.0" id="Layer_1" xmlns="http://www.w3.org/2000/svg" xmlns:xlink="http://www.w3.org/1999/xlink" x="0px" y="0px"
	 viewBox="0 0 24 24" enable-background="new 0 0 24 24" xml:space="preserve">
<title>supervisor_account_grey</title>
<g id="Layer_2" display="none">
	<g id="Layer_4">
	</g>
</g>
<g id="Layer_3" display="none">
</g>
<g display="none">
	<path fill="#6C757D" d="M9,5.4c-1.7,0-3.1,1.4-3.1,3.1s1.4,3.1,3.1,3.1s3.1-1.4,3.1-3.1S10.7,5.4,9,5.4z M9,10.4
		c-1,0-1.9-0.8-1.9-1.9S8,6.6,9,6.6s1.9,0.8,1.9,1.9S10,10.4,9,10.4z M9,14c-2.3,0-7,1.2-7,3.5V19h7v-1.5c0-0.2,0-0.3,0-0.5H4.8
		c1.3-0.6,2.8-1,4.2-1h0.3c0.4-0.7,0.9-1.4,1.7-1.8C10.3,14.1,9.7,14,9,14z M16.5,14.5c-1.8,0-5.5,1-5.5,3V19h11v-1.5
		C22,15.5,18.3,14.5,16.5,14.5z M18.7,9.3c-0.7-1.2-2.2-1.6-3.4-1c-1.2,0.7-1.6,2.2-1,3.4c0.2,0.4,0.6,0.8,1,1
		c0.8,0.4,1.7,0.4,2.4,0C18.9,12,19.4,10.5,18.7,9.3z"/>
</g>
<g id="Layer_5">
	<g id="Layer_9">
		<g id="Layer_7">
		</g>
	</g>
</g>
<g id="Layer_8">
	<g id="Layer_6">
	</g>
</g>
<path display="none" fill="#6C757D" d="M13.7,11.9c0.5,0.3,1.1,0.4,1.7,0.4c0.6,0,1.2-0.1,1.7-0.4c1.7-1,2.4-3.1,1.4-4.9
	c-0.5-0.8-1.2-1.4-2.2-1.7c-0.9-0.3-1.9-0.2-2.7,0.3c-1.7,0.9-2.4,3.1-1.4,4.9C12.7,11.1,13.2,11.6,13.7,11.9z M14.2,6.5
	c0.4-0.2,0.8-0.3,1.3-0.3c0.2,0,0.5,0,0.7,0.1c0.7,0.2,1.2,0.6,1.6,1.3c0.7,1.3,0.2,2.9-1,3.6h0c-0.8,0.4-1.8,0.4-2.6,0
	c-0.4-0.2-0.8-0.6-1-1C12.5,8.8,12.9,7.2,14.2,6.5z"/>
<path fill="#6C757D" stroke="#6C757D" stroke-width="0.25" stroke-miterlimit="10" d="M15.5,13.3c-2.6,0-7.3,1.4-7.3,4.2v2.3h14.7
	v-2.3C22.8,14.5,17.6,13.3,15.5,13.3z M21.9,18.9H9.1v-1.4c0-2,4.1-3.3,6.4-3.3s6.4,1.2,6.4,3.3V18.9z"/>
<path fill="#6C757D" stroke="#6C757D" stroke-width="0.25" stroke-miterlimit="10" d="M7.5,17.6H1.9v-1.1c0-1.7,3.4-2.7,5.2-2.7
	c0.6,0,1.3,0.1,2,0.3v-0.8c-0.8-0.2-1.5-0.3-2-0.3c-2.1,0-6,1.2-6,3.4v1.9h6.3V17.6z"/>
<path display="none" fill="#6C757D" d="M5.7,11.9c0.4,0.2,0.9,0.4,1.4,0.4s1-0.1,1.4-0.4c1.4-0.8,1.9-2.6,1.2-4
	C9.3,7.2,8.7,6.7,8,6.5C7.2,6.3,6.4,6.4,5.7,6.8c-1.4,0.8-1.9,2.6-1.2,4C4.9,11.2,5.3,11.6,5.7,11.9z M6.1,7.4
	c0.3-0.2,0.7-0.3,1-0.3c0.2,0,0.4,0,0.6,0.1c0.6,0.2,1,0.5,1.3,1c0.6,1,0.2,2.4-0.8,2.9h0c-0.6,0.4-1.4,0.4-2.1,0
	c-0.4-0.2-0.7-0.5-0.8-0.8C4.7,9.3,5.1,8,6.1,7.4z"/>
<circle fill="none" stroke="#6C757D" stroke-miterlimit="10" cx="6.2" cy="8.5" r="2.9"/>
<circle fill="none" stroke="#6C757D" stroke-miterlimit="10" cx="15.5" cy="8.5" r="3.5"/>
</svg>
