<?xml version="1.0" encoding="utf-8"?>
<!-- Generator: Adobe Illustrator 21.0.0, SVG Export Plug-In . SVG Version: 6.00 Build 0)  -->
<svg version="1.1" id="Layer_1" xmlns="http://www.w3.org/2000/svg" xmlns:xlink="http://www.w3.org/1999/xlink" x="0px" y="0px"
	 viewBox="0 0 24 24" style="enable-background:new 0 0 24 24;" xml:space="preserve">
<style type="text/css">
	.st0{display:none;}
	.st1{display:inline;fill:none;}
	.st2{fill:#6C757D;stroke:#6C757D;stroke-width:0.25;stroke-miterlimit:10;}
	.st3{display:inline;fill:#6C757D;}
	.st4{fill:#FFFFFF;}
	.st5{display:none;fill:#FFFFFF;}
	.st6{display:inline;fill:#FFFFFF;}
	.st7{display:inline;}
	.st8{fill:none;stroke:#6C757D;stroke-miterlimit:10;}
	.st9{display:inline;fill:#6C757D;stroke:#6C757D;stroke-width:0.25;stroke-miterlimit:10;}
	.st10{display:none;fill:none;stroke:#6C757D;stroke-miterlimit:10;}
	.st11{display:none;fill:#6C757D;}
</style>
<g class="st0">
	<path class="st1" d="M0,0h24v24H0V0z"/>
</g>
<g>
	<g>
		<path class="st0" d="M5.3,13.9c-0.6,0.2-1.2,0.6-1.8,1c-0.7,0.5-1.1,1.3-1.1,2.1c0-1,0.4-1.7,1.1-2.1C4.1,14.5,4.7,14.2,5.3,13.9
			 M2.4,16.9v0.7v1.2h1.2h6.8h-8L2.4,16.9 M11.7,11.6c-0.2,0-0.5,0-0.8,0c-2.9,0-5.7,0.8-8,2.2c-1.1,0.6-1.7,1.8-1.7,3.1V20h11.2
			c-0.5-0.7-1-1.6-1.2-2.4H3.6v-0.7c0-0.4,0.2-0.8,0.5-1c2.1-1.3,4.4-1.9,6.8-1.9H11C11.1,13.2,11.3,12.4,11.7,11.6L11.7,11.6z"/>
	</g>
	<path class="st2" d="M2.2,19.5V17c0-1.2,0.5-2.2,1.3-2.7c2.4-1.3,5-2.1,7.6-2.1c-0.1,0.4-0.2,0.8-0.4,1.2C8.3,13.5,6,14.1,4,15.5
		c-0.5,0.2-0.7,1-0.7,1.5v1.3H11c0.1,0.4,0.4,0.7,0.6,1.2C11.7,19.5,2.2,19.5,2.2,19.5z"/>
	<path class="st0" d="M10.8,10.4c2.7,0,4.8-2.2,4.8-4.8s-2.2-4.8-4.8-4.8S6,2.9,6,5.6S8.2,10.4,10.8,10.4z M10.8,3.2
		c1.3,0,2.4,1.1,2.4,2.4S12.2,8,10.8,8S8.4,6.9,8.4,5.6S9.5,3.2,10.8,3.2z"/>
	<path class="st0" d="M23.9,15.3c0-0.2,0-0.5-0.1-0.7l1.3-1.2l-1.2-2.1l-1.8,0.6c-0.4-0.4-0.8-0.6-1.3-0.7l-0.2-1.9h-2.4L17.7,11
		c-0.5,0.1-1,0.5-1.3,0.7l-1.7-0.6l-1.2,2.1l1.3,1.2c0,0.2-0.1,0.5-0.1,0.7s0,0.5,0.1,0.7L13.5,17l1.2,2.1l1.7-0.6
		c0.4,0.4,0.8,0.6,1.3,0.7l0.4,2.1h2.4l0.4-1.8c0.5-0.1,1-0.5,1.3-0.7l1.8,0.6l1.2-2.1l-1.3-1.2C23.8,15.7,23.9,15.5,23.9,15.3z
		 M19.3,17.7c-1.3,0-2.4-1.1-2.4-2.4s1.1-2.4,2.4-2.4s2.4,1.1,2.4,2.4S20.6,17.7,19.3,17.7z"/>
</g>
<g class="st0">
	<path class="st3" d="M16.5,10.4c-1.8,0-3.4,1.5-3.4,3.4c0,3.1,3.4,6.7,3.4,6.7s3.4-3.4,3.4-6.7C19.9,12,18.5,10.4,16.5,10.4z
		 M16.7,16.1c-1.3,0.1-2.4-0.8-2.5-2.1s0.8-2.4,2.1-2.5s2.4,0.8,2.5,2.1C19,14.9,18,16,16.7,16.1z"/>
	
		<ellipse transform="matrix(0.9955 -9.521551e-02 9.521551e-02 0.9955 -1.2395 1.6341)" class="st4" cx="16.5" cy="13.8" rx="2.3" ry="2.3"/>
</g>
<circle class="st5" cx="15.7" cy="14.5" r="2.3"/>
<g class="st0">
	<path class="st6" d="M10,10.4L10,10.4c-1.3,0-2.4-1.1-2.4-2.4l0,0c0-1.3,1.1-2.4,2.4-2.4l0,0c1.3,0,2.4,1.1,2.4,2.4l0,0
		C12.4,9.3,11.3,10.4,10,10.4z"/>
</g>
<path id="config" class="st0" d="M11.4,14c-0.1,0.4-0.1,0.8,0.1,1.1c0.4,1.1,1.6,1.6,2.7,1.2l4.1,4.1l0,0c0.3,0.3,0.8,0.3,1.1,0
	l0.1-0.1l0,0c0.3-0.3,0.3-0.8,0-1.1l-4.1-4.1c0.3-0.5,0.3-0.9,0.1-1.4c-0.3-1.1-1.5-1.7-2.6-1.4l1.1,1.1l-0.2,1.4L12.4,15L11.4,14z"
	/>
<g id="Layer_5">
</g>
<g id="Layer_4" class="st0">
	<g class="st7">
		<path d="M15,12c-2.2,0-3.9,1.8-3.9,3.9c0,2.2,1.8,3.9,3.9,3.9c0.3,0,0.6,0,0.8-0.1v-1.2h-0.1l0,0c-0.2,0.1-0.4,0.1-0.7,0.1
			c-1.6,0-2.8-1.2-2.8-2.8S13.4,13,15,13c1.5,0,2.8,1.2,2.8,2.8h1.1C18.8,13.7,17.1,12,15,12z"/>
		<path class="st4" d="M15.1,18.5v-3.3h1.2v0.6h1.5c0-1.6-1.3-2.8-2.8-2.8c-1.6,0-2.8,1.2-2.8,2.8S13.4,18.6,15.1,18.5
			c0.2,0.1,0.5,0.1,0.6,0l0,0H15.1z"/>
	</g>
</g>
<g class="st0">
	<path class="st7" d="M20.4,18h-0.6c0-0.1-0.1-0.1-0.1-0.3l0.2-0.3c0.1-0.1,0.1-0.2,0-0.3l-0.3-0.3c-0.1-0.1-0.2-0.1-0.3,0L19,17
		c-0.1,0-0.1-0.1-0.3-0.1l-0.1-0.4c0-0.1-0.1-0.2-0.2-0.2H18c-0.1,0-0.2,0.1-0.2,0.2l-0.1,0.4c-0.1,0-0.1,0.1-0.3,0.1l-0.3-0.2
		c-0.1-0.1-0.2-0.1-0.3,0l-0.3,0.3c-0.1,0.1-0.1,0.2,0,0.3l0.2,0.3c0,0.1-0.1,0.1-0.1,0.3h-0.2c-0.1,0-0.2,0.1-0.2,0.2v0.4
		c0,0.1,0.1,0.2,0.2,0.2l0.4,0.1c0,0.1,0.1,0.1,0.1,0.3l-0.2,0.3c-0.1,0.1-0.1,0.2,0,0.3l0.3,0.3c0.1,0.1,0.2,0.1,0.3,0l0.3-0.2
		c0.1,0,0.1,0.1,0.3,0.1l0.1,0.4c0,0.1,0.1,0.2,0.2,0.2h0.4c0.1,0,0.2-0.1,0.2-0.2l0.1-0.4c0.1,0,0.1-0.1,0.3-0.1l0.3,0.2
		c0.1,0.1,0.2,0.1,0.3,0l0.3-0.3c0.1-0.1,0.1-0.2,0-0.3l-0.2-0.3c0-0.1,0.1-0.1,0.1-0.3l0.4-0.1c0.1,0,0.2-0.1,0.2-0.2v-0.4
		C20.6,18.1,20.5,18,20.4,18z M18.3,19.4c-0.6,0-1-0.4-1-1s0.4-1,1-1s1,0.4,1,1S18.9,19.4,18.3,19.4z"/>
	<circle class="st6" cx="18.3" cy="18.4" r="1"/>
</g>
<circle class="st8" cx="11.5" cy="6.9" r="3.4"/>
<g id="Layer_2" class="st0">
	<g id="Layer_6" class="st7">
		<g>
			<path d="M11.1,16c0.1,0.8,0.5,1.5,1.1,2.1c0.8,0.8,1.8,1.1,2.8,1.1c0.1,0,0.2,0,0.3,0c-0.1-0.2-0.2-0.4-0.2-0.6v-0.2
				c-0.8,0-1.7-0.3-2.3-0.9c-0.5-0.5-0.8-1-0.9-1.7c0-0.2-0.2-0.4-0.5-0.3C11.2,15.6,11.1,15.8,11.1,16z"/>
			<path class="st0" d="M10.9,14.2c0,0.1,0,0.2,0.1,0.2c0.1,0.1,0.2,0.1,0.3,0.1l2.1-0.4c0.1,0,0.2-0.1,0.2-0.2c0-0.1,0-0.2-0.1-0.3
				L13,13.1c1.2-1.1,3.1-1.1,4.3,0.1c0.6,0.6,0.9,1.4,0.9,2.1h0.4c0.1,0,0.3,0,0.4,0.1c0-1-0.4-2-1.1-2.8c-1.5-1.5-3.9-1.5-5.4-0.1
				L11.8,12c-0.1-0.1-0.2-0.1-0.3-0.1s-0.2,0.1-0.2,0.2L10.9,14.2z"/>
		</g>
	</g>
	<g id="Layer_3" class="st7">
		<path d="M14.6,14.2v1.4L13.8,16c-0.2,0.1-0.3,0.3-0.2,0.5s0.2,0.2,0.4,0.2c0.1,0,0.1,0,0.2,0l1-0.4c0.2-0.1,0.2-0.2,0.2-0.4v-1.7
			c0-0.2-0.2-0.4-0.4-0.4S14.6,14,14.6,14.2z"/>
	</g>
</g>
<g class="st0">
	<g class="st7">
		<path class="st0" d="M5.3,14.8c-0.6,0.2-1.2,0.6-1.8,1c-0.7,0.5-1.1,1.3-1.1,2c0-1,0.4-1.7,1.1-2C4.1,15.3,4.7,15,5.3,14.8
			 M2.4,17.7v0.7v1.2h1.2h6.7H2.4V17.7 M11.6,12.5c-0.2,0-0.5,0-0.8,0c-2.9,0-5.6,0.8-7.9,2.1c-1.1,0.6-1.7,1.8-1.7,3.1v3.1h11.1
			c-0.5-0.7-1-1.5-1.2-2.4H3.6v-0.7c0-0.4,0.2-0.8,0.5-1c2-1.3,4.3-1.9,6.7-1.9h0.1C11,14,11.3,13.2,11.6,12.5L11.6,12.5z"/>
	</g>
	<path class="st9" d="M1.8,20.2v-2.5c0-1.2,0.5-2.1,1.3-2.6c2.4-1.3,4.9-2,7.5-2c-0.1,0.4-0.2,0.8-0.4,1.2c-2.4,0.1-4.7,0.7-6.6,2
		c-0.5,0.2-0.7,1-0.7,1.4V19h7.7c0.1,0.4,0.4,0.7,0.6,1.2C11.3,20.2,1.8,20.2,1.8,20.2z"/>
	<path class="st7" d="M10.8,11.3c2.6,0,4.8-2.1,4.8-4.8s-2.2-4.8-4.8-4.8S6,3.9,6,6.5S8.2,11.3,10.8,11.3z M10.8,4.2
		c1.3,0,2.4,1.1,2.4,2.4S12.1,9,10.8,9S8.4,7.9,8.4,6.5S9.5,4.2,10.8,4.2z"/>
	<path class="st7" d="M23.7,16.1c0-0.2,0-0.5-0.1-0.7l1.3-1.2l-1.2-2l-1.8,0.6c-0.4-0.4-0.8-0.6-1.3-0.7l-0.2-1.9H18L17.6,12
		c-0.5,0.1-1,0.5-1.3,0.7L14.6,12l-1.2,2l1.3,1.2c0,0.2-0.1,0.5-0.1,0.7c0,0.2,0,0.5,0.1,0.7l-1.3,1.2l1.2,2l1.7-0.6
		c0.4,0.4,0.8,0.6,1.3,0.7l0.4,2h2.4l0.4-1.8c0.5-0.1,1-0.5,1.3-0.7l1.8,0.6l1.2-2l-1.3-1.2C23.6,16.5,23.7,16.3,23.7,16.1z
		 M19.2,18.4c-1.3,0-2.4-1.1-2.4-2.4s1.1-2.4,2.4-2.4s2.4,1.1,2.4,2.4C21.6,17.4,20.5,18.4,19.2,18.4z"/>
</g>
<ellipse class="st10" cx="11" cy="7.9" rx="3.4" ry="3.3"/>
<path class="st11" d="M12.1,13.7C12,14,12,14.5,12.2,14.9c0.4,1.2,1.7,1.7,2.9,1.3l4.3,4.3l0,0c0.4,0.4,1,0.4,1.2,0l0.1-0.1l0,0
	c0.4-0.4,0.4-1,0-1.2l-4.4-4.3c0.2-0.5,0.2-1,0.1-1.4c-0.4-1.2-1.6-1.9-2.8-1.5l1.2,1.2l-0.2,1.4l-1.4,0.2L12.1,13.7z"/>
<circle class="st10" cx="11" cy="7.9" r="3.1"/>
<circle class="st8" cx="11.5" cy="6.8" r="3.2"/>
<path class="st2" d="M16.2,11.1c-2.3,0-4.2,1.9-4.2,4.2h-1.4l1.8,1.8l0,0.1l1.9-1.9h-1.4c0-1.8,1.5-3.3,3.3-3.3s3.3,1.5,3.3,3.3
	s-1.5,3.3-3.3,3.3c-0.9,0-1.7-0.4-2.3-1l-0.7,0.7c0.8,0.8,1.8,1.2,3,1.2c2.3,0,4.2-1.9,4.2-4.2S18.5,11.1,16.2,11.1z M15.7,13.5v2.3
	l2,1.2l0.3-0.6l-1.6-1v-2H15.7z"/>
</svg>
