<svg height='300px' width='300px'  fill="#646464" xmlns="http://www.w3.org/2000/svg" xmlns:xlink="http://www.w3.org/1999/xlink" version="1.1" x="0px" y="0px" viewBox="0 0 100 100" enable-background="new 0 0 100 100" xml:space="preserve"><g><path fill-rule="evenodd" clip-rule="evenodd" fill="#646464" d="M47.688,81.787c-0.102-0.263-0.439-0.344-0.652-0.158   c-1.08,0.944-2.46,1.561-3.958,1.561c-3.433,0-6.242-3.236-6.258-6.234h11.304l1.696-2.029l-0.409-0.863l-0.672-0.011   c-1.968-0.038-3.666-1.272-4.547-2.907H14.534v-4.883l7.011-7.198c0-6.887,0-12.833,0-14.085c0-10.591,7.011-19.293,17.026-21.412   v-2.035c0-2.171,1.446-4.16,3.568-4.62c2.923-0.633,5.446,1.783,5.446,4.593c0,0.209,0,0.981,0,2.062   c8.427,1.782,14.71,8.232,16.496,16.539c0.034,0.159,0.213,0.224,0.344,0.128c0.869-0.633,1.923-1.02,3.068-1.02h1.849   c0.25,0,0.44-0.234,0.386-0.478c-1.978-8.93-8.125-16.237-16.586-19.552C52.102,14.505,47.985,11,43.079,11   c-4.906,0-9.023,3.505-10.064,8.185c-10.365,4.061-17.28,14.105-17.28,25.795v11.723l-6.16,6.325   c-0.546,0.56-0.851,1.311-0.851,2.093v8.93c0,1.605,1.301,2.905,2.905,2.905H31.01C31.025,83.375,36.657,89,43.079,89   c3.003,0,5.824-1.24,7.988-3.206l-2.232-2.232C48.316,83.043,47.94,82.435,47.688,81.787z"></path><path fill-rule="evenodd" clip-rule="evenodd" fill="#646464" d="M89.993,62.578c0,0-3.332-0.285-5.134-0.728   c-0.148-0.037-0.148-0.037-0.148-0.037c-0.151-0.06-0.392-0.445-0.536-0.858c-0.144-0.408-0.516-1.864-0.402-2.365   c0,0,0,0,0.345-0.483c1.696-2.379,3.254-4.009,3.254-4.009c0.49-0.51,0.48-1.34-0.02-1.839l-3.247-3.248   c-0.499-0.499-1.327-0.509-1.84-0.02c0,0-1.776,1.699-4.16,3.02c-0.523,0.291-0.523,0.291-0.523,0.291   c-0.637,0.044-1.501-0.067-1.917-0.248c-0.416-0.181-1.589-0.66-1.622-0.777c0,0,0,0-0.02-0.118   c-0.483-2.882-0.536-5.838-0.536-5.838c-0.014-0.708-0.604-1.287-1.311-1.287h-4.591c-0.708,0-1.297,0.579-1.311,1.287   c0,0-0.06,3.16-0.811,5.781c-0.047,0.164-0.047,0.164-0.047,0.164c-0.076,0.168-0.382,0.386-0.674,0.487   c-0.295,0.1-1.625,0.399-2.335,0.389c0,0-0.057,0-0.668-0.339c-2.386-1.32-4.159-3.016-4.159-3.016   c-0.51-0.49-1.341-0.48-1.84,0.02l-3.247,3.247c-0.499,0.499-0.51,1.327-0.021,1.84c0,0,1.559,1.625,3.254,4.005   c0.309,0.432,0.309,0.432,0.309,0.432c0.12,0.456,0.05,1.189-0.158,1.632s-0.798,1.743-0.982,1.83c0,0,0,0-0.184,0.053   c-2.621,0.754-5.078,0.808-5.078,0.808c-0.707,0.013-1.287,0.607-1.287,1.314v4.592c0,0.707,0.58,1.3,1.287,1.314   c0,0,2.252,0.047,5.134,0.529c0.144,0.023,0.144,0.023,0.144,0.023c0.144,0.04,0.389,0.439,0.543,0.889   c0.154,0.449,0.57,2.014,0.462,2.537c0,0,0,0-0.359,0.503c-1.695,2.379-3.254,4.004-3.254,4.004   c-0.489,0.51-0.479,1.341,0.021,1.84l3.247,3.247c0.499,0.499,1.327,0.51,1.84,0.021c0,0,1.773-1.7,4.16-3.02   c0.6-0.332,0.633-0.332,0.633-0.332c0.707-0.016,1.526,0.068,1.816,0.195c0.292,0.124,1.187,0.596,1.311,0.831c0,0,0,0,0.067,0.234   c0.754,2.621,0.807,5.078,0.807,5.078c0.017,0.707,0.607,1.287,1.314,1.287h4.592c0.707,0,1.301-0.58,1.314-1.287   c0,0,0.051-2.252,0.533-5.134c0.027-0.165,0.027-0.165,0.027-0.165c0.046-0.16,0.415-0.405,0.821-0.542   c0.405-0.138,2.01-0.55,2.718-0.523c0,0,0,0,0.579,0.322c2.387,1.32,4.16,3.02,4.16,3.02c0.513,0.489,1.341,0.479,1.84-0.021   l3.247-3.247c0.499-0.499,0.51-1.327,0.02-1.84c0,0-1.558-1.626-3.254-4.005c-0.359-0.506-0.359-0.506-0.359-0.506   c-0.107-0.527-0.04-1.308,0.148-1.733c0.188-0.426,0.674-1.625,0.784-1.656c-0.003,0.007-0.003,0.007,0.107-0.009   c2.883-0.483,5.192-0.533,5.192-0.533c0.707-0.014,1.287-0.607,1.287-1.314v-4.591C91.276,63.269,90.7,62.638,89.993,62.578z    M69.837,75.89c-5.322,0-9.639-4.314-9.639-9.638s4.314-9.639,9.639-9.639s9.638,4.314,9.638,9.639   C79.472,71.576,75.158,75.89,69.837,75.89z"></path></g></svg>