<?xml version="1.0" encoding="utf-8"?>
<!-- Generator: Adobe Illustrator 21.0.0, SVG Export Plug-In . SVG Version: 6.00 Build 0)  -->
<svg version="1.0" id="Layer_1" xmlns="http://www.w3.org/2000/svg" xmlns:xlink="http://www.w3.org/1999/xlink" x="0px" y="0px"
	 viewBox="0 0 24 24" style="enable-background:new 0 0 24 24;" xml:space="preserve">
<style type="text/css">
	.st0{fill:none;}
	.st1{display:none;}
	.st2{display:inline;}
	.st3{display:inline;fill:#FFFFFF;}
	.st4{fill:#6C757D;}
	.st5{display:none;fill:#9B3FFF;}
	.st6{fill:none;stroke:#6C757D;stroke-width:1.3;stroke-miterlimit:10;}
	.st7{display:none;fill:none;stroke:#6C757D;stroke-width:0.75;stroke-miterlimit:10;}
</style>
<g id="Layer_31">
	<g id="Layer_22">
		<g>
			<rect class="st0" width="24" height="24"/>
			<rect class="st0" width="24" height="24"/>
		</g>
	</g>
</g>
<g id="Layer_2">
	<g id="Layer_3">
		<g id="Layer_21">
			<g id="Layer_5_1_">
				<g id="Layer_9_1_">
					<g id="Layer_10">
						<g class="st1">
							<polygon class="st2" points="18.7,13.3 18.7,11.3 16.7,11.3 16.7,10.1 18.7,10.1 18.7,8.1 19.9,8.1 19.9,10.1 21.9,10.1 
								21.9,11.3 19.9,11.3 19.9,13.3 							"/>
							<path class="st2" d="M19.5,8.5v1.3v0.8h0.8h1.3V11h-1.3h-0.8v0.8V13H19v-1.3V11h-0.8H17v-0.5h1.3H19V9.7V8.5H19.5 M20.3,7.7
								h-2v2h-2v2h2v2h2v-2h2v-2h-2V7.7L20.3,7.7z"/>
						</g>
						<g class="st1">
							<path class="st2" d="M20.7,11.1c0,1-0.9,1.8-1.9,1.8s-1.9-0.8-1.9-1.8c0,1,0.8,1.9,1.9,1.9S20.7,12.1,20.7,11.1L20.7,11.1z"
								/>
						</g>
						<g class="st1">
							<path class="st3" d="M18.8,12.5c-0.8,0-1.5-0.7-1.5-1.4V11c0-0.8,0.7-1.5,1.5-1.5s1.5,0.7,1.5,1.5v0.1
								C20.3,11.9,19.6,12.5,18.8,12.5z"/>
							<path class="st2" d="M18.8,9.9c0.6,0,1.1,0.6,1.1,1.1v0.1c0,0.6-0.5,1-1.1,1s-1.1-0.5-1.1-1V11C17.6,10.4,18.2,9.9,18.8,9.9
								 M18.8,9.1c-1,0-1.9,0.9-1.9,1.9c0,0,0,0,0,0.1c0,1,0.9,1.8,1.9,1.8s1.9-0.8,1.9-1.8c0,0,0,0,0-0.1
								C20.7,10,19.8,9.1,18.8,9.1L18.8,9.1z"/>
						</g>
					</g>
				</g>
				<g id="Layer_8">
					<g id="Layer_9">
						<g class="st1">
							<path class="st2" d="M8,11.5c-1.9,0-3.5-1.6-3.5-3.5S6.1,4.5,8,4.5s3.5,1.6,3.5,3.5S9.9,11.5,8,11.5z M8,5.5
								C6.6,5.5,5.5,6.6,5.5,8s1.1,2.5,2.5,2.5s2.5-1.1,2.5-2.5S9.4,5.5,8,5.5z"/>
							<path class="st2" d="M11,8c0,1.7-1.3,3-3,3S5,9.7,5,8c0,1.7,1.3,3,3,3S11,9.7,11,8 M8,4C5.8,4,4,5.8,4,8s1.8,4,4,4s4-1.8,4-4
								S10.2,4,8,4L8,4z M8,10c-1.1,0-2-0.9-2-2s0.9-2,2-2s2,0.9,2,2S9.1,10,8,10L8,10z"/>
						</g>
					</g>
				</g>
				<g id="Layer_7_1_">
					<path class="st4" d="M12.5,11.1c0.6-1,0.9-2.1,0.9-3.2c0-1.2-0.3-2.3-1-3.3c1.3,0.5,2.2,1.8,2.2,3.3
						C14.7,9.3,13.8,10.6,12.5,11.1z"/>
				</g>
			</g>
		</g>
	</g>
</g>
<g>
	<path class="st4" d="M16.7,19.5v-2.6c0-0.8-0.2-1.5-0.6-2.2c1.2,0.7,1.8,1.4,1.8,2.2v2.6H16.7z"/>
	<path class="st4" d="M16.9,15.7c0.4,0.4,0.6,0.8,0.6,1.2v2.3H17v-2.3C17.1,16.5,17,16.1,16.9,15.7 M14.8,13.7
		c0.9,0.8,1.5,1.9,1.5,3.2v3h2v-3C18.3,15.5,16.7,14.4,14.8,13.7L14.8,13.7z"/>
	<path class="st4" d="M20.3,13.9h-1.7l-0.2-1l-0.1-0.3h-0.2c-0.1,0-0.2-0.1-0.3-0.1h-0.1l-0.9,0.4h-0.1v-0.1l-0.8-1.4l1-0.8V10
		l-1-0.7l0.7-1.4h0.1L18,8.5c-0.6,0.4-1,1.1-1,1.9v0.1c0,1.3,1,2.3,2.3,2.3s2.3-1,2.3-2.3s-1-2.4-2.3-2.4c-0.4,0-0.9,0.1-1.2,0.4
		V8.2h0.1V8.1h0.1l0.1-1.3h1.7l0,0v0.1l0.3,1.3h0.2c0.1,0,0.2,0.1,0.3,0.1H21l0.9-0.4H22V8l0.8,1.4l-1,0.7v0.6l1,0.7l0,0v0.1
		c0,0,0,0.1,0.1,0.1l-0.7,1.3h-0.1l-1.4-0.6v0.3h-0.2L20.3,13.9L20.3,13.9z"/>
	<path class="st4" d="M19.7,7.1l0.1,0.6c-0.2,0-0.4-0.1-0.6-0.1s-0.4,0-0.7,0.1l0.1-0.6H19.7 M21.7,8.3l0.6,1l-0.5,0.4
		c-0.1-0.4-0.3-0.8-0.6-1.1L21.7,8.3 M16.7,8.3l0.5,0.2c-0.2,0.3-0.4,0.6-0.5,0.9l-0.4-0.3L16.7,8.3 M21.8,11.1l0.7,0.5L22,12.5
		l-0.7-0.3h-0.1C21.4,11.9,21.6,11.5,21.8,11.1 M16.7,11.2c0.1,0.4,0.4,0.8,0.7,1.1L17,12.5l-0.6-1L16.7,11.2 M20.1,12.9L20.1,12.9
		L20,13.6h-1.1L18.8,13c0.1,0,0.3,0,0.4,0C19.5,13.1,19.8,13,20.1,12.9 M20,6.4h-1.7c-0.2,0-0.4,0.2-0.4,0.3l-0.1,1
		c0,0-0.1,0-0.1,0.1c0,0-0.1,0-0.1,0.1l-0.9-0.4c-0.1,0-0.1,0-0.2,0s-0.3,0.1-0.3,0.2l-0.7,1.4c-0.1,0.2-0.1,0.4,0.1,0.5l0.8,0.6
		v0.2l-0.8,0.7c-0.2,0.1-0.2,0.3-0.1,0.5l0.9,1.5c0.1,0.1,0.2,0.2,0.3,0.2c0,0,0.1,0,0.2,0l0.9-0.4c0.1,0,0.1,0.1,0.2,0.1l0.2,1
		c0,0.2,0.2,0.3,0.4,0.3h1.7c0.2,0,0.4-0.1,0.4-0.3l0.1-1h0.1c0,0,0.1,0,0.1-0.1l1,0.4c0,0,0.1,0,0.2,0s0.3-0.1,0.3-0.2l0.8-1.5
		c-0.1-0.1-0.2-0.4-0.3-0.5l-0.8-0.6v-0.2L23,9.7c0.2-0.1,0.2-0.3,0.1-0.5l-0.9-1.5c-0.1-0.1-0.2-0.2-0.3-0.2c0,0-0.1,0-0.2,0
		l-0.9,0.4c-0.1,0-0.1-0.1-0.2-0.1l-0.2-1C20.4,6.6,20.2,6.4,20,6.4L20,6.4z M19.2,12.3c-1.1,0-1.9-0.9-1.9-1.9c0,0,0,0,0-0.1
		c0-1,0.9-1.9,1.9-1.9c1.1,0,1.9,0.9,1.9,2c0-0.1,0-0.1,0-0.1s0,0,0,0.1C21.1,11.4,20.3,12.3,19.2,12.3L19.2,12.3z"/>
</g>
<path class="st4" d="M13.4,5.7C14,6.2,14.3,7,14.3,7.9c0,0.8-0.3,1.6-0.9,2.1c0.2-0.7,0.4-1.4,0.4-2.1C13.8,7.1,13.7,6.4,13.4,5.7
	 M11.6,4c0.9,1.1,1.5,2.4,1.5,3.9s-0.6,2.9-1.5,3.9c2-0.3,3.5-1.9,3.5-3.9S13.6,4.2,11.6,4L11.6,4z"/>
<g id="Layer_29">
	<g id="Layer_20">
		<g id="Layer_2_1_">
		</g>
	</g>
</g>
<g id="Layer_28">
	<g id="Layer_19">
		<g id="Layer_4_1_" class="st1">
			<g id="Layer_3_1_" class="st2">
			</g>
		</g>
	</g>
</g>
<g id="Layer_27">
	<g id="Layer_18">
		<g id="Layer_11">
			<g id="Layer_12">
				<path class="st5" d="M8,13.5c2.5,0,7.5,1.2,7.5,3.5v2.5h-15V17C0.5,14.7,5.5,13.5,8,13.5 M1.5,18.5H2h12h0.5V18v-1v-0.1v-0.1
					c-0.3-1.1-3.8-2.4-6.5-2.4s-6.2,1.3-6.5,2.4v0.1V17v1V18.5 M8,13c-2.7,0-8,1.3-8,4v3h16v-3C16,14.3,10.7,13,8,13L8,13z M2,18v-1
					c0.2-0.7,3.3-2,6-2s5.8,1.3,6,2v1H2L2,18z"/>
			</g>
		</g>
	</g>
</g>
<path class="st4" d="M0.3,19.8V17c0-2.5,5-3.8,7.8-3.8s7.8,1.3,7.8,3.8v2.8H0.3z M8,14.8c-2.7,0-6,1.3-6.2,2.2v1.3h12.5V17
	C14,16,10.7,14.8,8,14.8z"/>
<g id="Layer_25">
	<g id="Layer_16">
		<g class="st1">
			<g class="st2">
				<rect x="1.3" y="14.4" width="13.3" height="4.3"/>
			</g>
		</g>
	</g>
</g>
<g id="Layer_24">
	<g id="Layer_15">
		<g class="st1">
			<path class="st2" d="M0.3,13.2v6.5h15.5v-6.5C15.8,13.2,0.3,13.2,0.3,13.2z M14.6,18.6H1.3v-4.3h13.3V18.6z"/>
		</g>
	</g>
</g>
<g id="Layer_23">
	<g id="Layer_32">
	</g>
</g>
<g id="Layer_14">
	<circle class="st6" cx="8.2" cy="7.7" r="3.6"/>
</g>
<path class="st7" d="M8.1,10.9L8.1,10.9c-1.8,0-3.3-1.5-3.3-3.3v0c0-1.8,1.5-3.3,3.3-3.3h0c1.8,0,3.3,1.5,3.3,3.3v0
	C11.4,9.5,9.9,10.9,8.1,10.9z"/>
</svg>
