<?xml version="1.0" encoding="utf-8"?>
<!-- Generator: Adobe Illustrator 21.0.0, SVG Export Plug-In . SVG Version: 6.00 Build 0)  -->
<svg version="1.1" id="Layer_1" xmlns="http://www.w3.org/2000/svg" xmlns:xlink="http://www.w3.org/1999/xlink" x="0px" y="0px"
	 viewBox="0 0 24 24" style="enable-background:new 0 0 24 24;" xml:space="preserve">
<style type="text/css">
	.st0{fill:none;}
	.st1{fill:#6C757D;}
</style>
<path class="st0" d="M0,0h24v24H0V0z"/>
<g>
	<path class="st1" d="M7.3,16v1.5h6.5V16H7.3z M7.3,12v1.5h9.5V12H7.3z M7.3,12v1.5h9.5V12H7.3z M7.3,16v1.5h6.5V16H7.3z M7.3,16
		v1.5h6.5V16H7.3z M7.3,12v1.5h9.5V12H7.3z M7.3,12v1.5h9.5V12H7.3z M7.3,16v1.5h6.5V16H7.3z M7.3,16v1.5h6.5V16H7.3z M7.3,12v1.5
		h9.5V12H7.3z M7.3,12v1.5h9.5V12H7.3z M7.3,16v1.5h6.5V16H7.3z M7.3,16v1.5h6.5V16H7.3z M7.3,12v1.5h9.5V12H7.3z M7.3,12v1.5h9.5
		V12H7.3z M7.3,17.5h6.5V16H7.3V17.5z M19,4h-1.3V2h-1.5v2H7.8V2H6.3v2H5C4,4,3.3,4.7,3.3,5.7v14c0,1,0.8,1.8,1.8,1.8h14
		c1,0,1.8-0.8,1.8-1.8v-14C20.8,4.7,20,4,19,4z M19.3,20H4.8V9.5h14.5V20z M19.3,8H4.8V5.5h14.5V8z M16.8,12H7.3v1.5h9.5V12z
		 M13.8,16H7.3v1.5h6.5V16z M7.3,16v1.5h6.5V16H7.3z M7.3,12v1.5h9.5V12H7.3z M7.3,12v1.5h9.5V12H7.3z M7.3,16v1.5h6.5V16H7.3z
		 M7.3,16v1.5h6.5V16H7.3z M7.3,12v1.5h9.5V12H7.3z M7.3,12v1.5h9.5V12H7.3z M7.3,16v1.5h6.5V16H7.3z"/>
</g>
</svg>
