<?xml version="1.0" encoding="utf-8"?>
<!-- Generator: Adobe Illustrator 21.0.0, SVG Export Plug-In . SVG Version: 6.00 Build 0)  -->
<svg version="1.1" baseProfile="tiny" id="Layer_1" xmlns="http://www.w3.org/2000/svg" xmlns:xlink="http://www.w3.org/1999/xlink"
	 x="0px" y="0px" viewBox="0 0 24 24" xml:space="preserve">
<g display="none">
	<rect display="inline" fill="none" width="24" height="24"/>
</g>
<g display="none">
	<path display="inline" d="M7.4,10H9v5c0,0.6,0.4,1,1,1h4c0.6,0,1-0.4,1-1v-5h1.6c0.9,0,1.3-1.1,0.7-1.7l-4.6-4.6
		c-0.4-0.4-1-0.4-1.4,0L6.7,8.3C6.1,8.9,6.5,10,7.4,10z M5,19c0,0.5,0.4,1,1,1h12c0.5,0,1-0.5,1-1s-0.5-1-1-1H6C5.4,18,5,18.5,5,19z
		"/>
</g>
<g>
	<path fill="#6C757D" d="M13.8,10.6c1.5,0,2.7-1.2,2.7-2.7s-1.2-2.7-2.7-2.7s-2.7,1.2-2.7,2.7S12.3,10.6,13.8,10.6z M13.8,6.5
		c0.7,0,1.4,0.6,1.4,1.4c0,0.7-0.6,1.4-1.4,1.4s-1.4-0.6-1.4-1.4C12.4,7.1,13,6.5,13.8,6.5z"/>
	<path fill="#6C757D" stroke="#6C757D" stroke-width="0.25" stroke-miterlimit="10" d="M15.2,18.7H2.9v-4.2L7,11.4l8.2,5.4v-1.6
		L14,14.4l5.2-3.5v3.7h1.4V2.4h-19V20h13.6C15.2,20,15.2,18.7,15.2,18.7z M2.9,3.8h16.3v5.5l-6.4,4.3L7,9.7l-4,3L2.9,3.8L2.9,3.8z"
		/>
</g>
<polygon fill="#6C757D" stroke="#6C757D" stroke-width="0.25" stroke-miterlimit="10" points="19,18.3 19,23.1 20.1,23.1 20.1,18.3 
	21.6,19.8 22.4,19 19.6,16.1 16.7,19 17.5,19.8 "/>
</svg>
